<svg width="50" height="50" viewBox="0 0 50 50" fill="none" xmlns="http://www.w3.org/2000/svg">
<rect width="50" height="50" rx="25" fill="white" fill-opacity="0.15"/>
<path d="M25.4379 13C18.9549 13 13.625 17.9323 13 24.2504L19.3588 27.5053C20.0008 26.9655 20.8356 26.6364 21.7447 26.6364H21.7735C21.9951 26.2955 22.25 25.8688 22.517 25.4256C23.0739 24.5109 23.699 23.4767 24.3126 22.6813C24.449 20.1415 26.5572 18.1136 29.131 18.1136C31.7958 18.1136 33.9606 20.2784 33.9606 22.9432C33.9606 25.517 31.9327 27.6253 29.3929 27.7616C28.5975 28.3753 27.569 29.0005 26.6486 29.5516C26.2054 29.8244 25.7788 30.0791 25.4379 30.3007V30.3295C25.4379 32.3693 23.7844 34.0227 21.7447 34.0227C19.7049 34.0227 18.0515 32.3693 18.0515 30.3295C18.0515 30.233 18.0569 30.142 18.0626 30.0455L13.0965 27.4997C14.0568 33.4543 19.2163 38 25.4379 38C32.3413 38 37.9379 32.4034 37.9379 25.5C37.9379 18.5966 32.3413 13 25.4379 13ZM29.131 19.25C27.0969 19.25 25.4379 20.9091 25.4379 22.9432C25.4379 24.9773 27.0969 26.6364 29.131 26.6364C31.1651 26.6364 32.8242 24.9773 32.8242 22.9432C32.8242 20.9091 31.1651 19.25 29.131 19.25ZM29.131 20.3864C30.5458 20.3864 31.6879 21.5284 31.6879 22.9432C31.6879 24.358 30.5458 25.5 29.131 25.5C27.7163 25.5 26.5742 24.358 26.5742 22.9432C26.5742 21.5284 27.7163 20.3864 29.131 20.3864ZM21.7447 27.7727C21.2958 27.7727 20.8699 27.8865 20.5062 28.0968L22.3928 29.0622C23.0916 29.4202 23.3643 30.2788 23.012 30.9776C22.7563 31.4663 22.2617 31.75 21.7447 31.75C21.5231 31.75 21.3068 31.6991 21.0966 31.5969L19.2045 30.6247C19.3522 31.8975 20.4322 32.8864 21.7447 32.8864C23.1594 32.8864 24.3015 31.7443 24.3015 30.3295C24.3015 28.9148 23.1594 27.7727 21.7447 27.7727Z" fill="white"/>
</svg>
