<svg width="50" height="50" viewBox="0 0 50 50" fill="none" xmlns="http://www.w3.org/2000/svg">
<rect width="50" height="50" rx="25" fill="white" fill-opacity="0.15"/>
<path d="M30.4727 13L26.5 13.0091V38H30.4727C33.9216 38 36.7273 35.0625 36.7273 31.4523V20.217C36.7273 15.6977 34.3898 13 30.4727 13ZM31.6136 31.1818C30.0466 31.1818 28.7727 29.908 28.7727 28.3409C28.7727 26.7739 30.0466 25.5 31.6136 25.5C33.1807 25.5 34.4545 26.7739 34.4545 28.3409C34.4545 29.908 33.1807 31.1818 31.6136 31.1818ZM20.2545 38L24.2273 37.9909V13H20.2545C16.8057 13 14 15.9375 14 19.5477V30.783C14 35.3023 16.3375 38 20.2545 38ZM19.1136 18.6818C20.6807 18.6818 21.9545 19.9557 21.9545 21.5227C21.9545 23.0898 20.6807 24.3636 19.1136 24.3636C17.5466 24.3636 16.2727 23.0898 16.2727 21.5227C16.2727 19.9557 17.5466 18.6818 19.1136 18.6818Z" fill="white"/>
</svg>
