<svg width="50" height="50" viewBox="0 0 50 50" fill="none" xmlns="http://www.w3.org/2000/svg">
<rect width="50" height="50" rx="25" fill="white" fill-opacity="0.15"/>
<path d="M20.2964 13V36.4451L25.3819 38V18.3674C25.3819 17.8022 25.3817 17.5206 25.6638 17.2375C25.8048 16.9555 26.0866 16.9555 26.3686 17.0965C27.0748 17.3786 27.5006 17.944 27.5006 19.0743V26.8402C29.195 27.6874 30.6056 27.6874 31.7359 26.8402C32.8663 25.993 33.4318 24.7234 33.4318 22.6049C33.4329 20.3453 33.0082 18.9327 32.02 17.8035C31.1729 16.6732 29.6203 15.684 27.3596 14.9778C24.5349 14.1306 22.1329 13.4241 20.2964 13ZM18.8846 27.6903L12.3874 29.95L11.4007 30.3729C9.84731 31.0791 9 31.7855 9 32.4917C9.14101 33.3389 9.42311 34.4703 11.5416 35.1764C13.5192 35.8826 15.0727 36.1647 19.0278 35.0355V32.4917C15.2126 33.7619 14.6484 33.6216 14.0833 33.3396C13.5181 33.0576 13.5172 32.7736 13.6582 32.6326C14.0824 32.3506 15.636 31.7847 15.636 31.7847L18.8846 30.6548V27.6903ZM33.2562 28.7898C32.7971 28.7744 32.3382 28.7828 31.8791 28.818C30.3257 28.818 28.912 29.1008 27.2165 29.525V32.4917L30.3242 31.3596L32.0179 30.7958C32.0179 30.7958 32.7257 30.6549 33.1499 30.5139C33.8561 30.3729 34.7026 30.6548 34.7026 30.6548C35.1268 30.6548 35.4096 30.7946 35.4096 31.0777C35.5506 31.3597 35.2679 31.5027 34.5617 31.7847L33.0089 32.3507L27.3596 34.4673V37.434L29.9013 36.5861L36.9624 34.0444L37.8103 33.6194C39.5047 33.0542 40.211 32.3478 40.07 31.5006C40.07 30.6545 39.0818 30.0901 37.3874 29.525C36.01 29.1011 34.6332 28.8361 33.2562 28.7898Z" fill="white"/>
</svg>
