<svg width="50" height="50" viewBox="0 0 50 50" fill="none" xmlns="http://www.w3.org/2000/svg">
<rect width="50" height="50" rx="25" fill="white" fill-opacity="0.15"/>
<path d="M25.4724 13C23.1403 13 20.9173 13.6526 19.0738 14.7939C18.9548 14.8336 18.7491 14.9901 18.5622 15.1559C20.2171 13.8412 24.044 16.4744 25.1614 17.2587C25.3494 17.3907 25.5964 17.3907 25.7845 17.2587C26.9019 16.4744 30.7288 13.8407 32.3837 15.1559C32.1967 14.9901 31.9905 14.8336 31.8721 14.7939C30.028 13.6526 27.8045 13 25.4724 13ZM17.8637 16.2609C16.9958 16.2609 16.3617 16.9678 16.3617 16.9678C14.3008 19.1961 13 22.1848 13 25.5C13 32.4022 18.5854 38 25.4724 38C29.1056 38 32.4136 36.4239 34.6914 33.9239C34.6914 33.9239 34.4203 32.2933 32.7393 29.902C30.8594 27.0666 27.0513 23.4956 25.8322 22.3994C25.6241 22.2125 25.3138 22.2135 25.1073 22.4026C24.1888 23.2434 21.8188 25.5966 21.2965 26.2069C20.0493 27.5113 16.5786 31.6411 16.3617 33.978C16.3617 33.978 15.6021 32.1306 17.2831 27.8915C18.3293 25.3448 21.5786 21.5587 23.1541 19.9071C23.3634 19.688 23.3583 19.3419 23.1371 19.1343C22.6154 18.6457 21.3992 17.7895 20.303 17.1302C19.5443 16.6411 18.6773 16.3152 17.8637 16.2609ZM32.9123 16.2609C32.5574 16.2609 30.2518 16.9907 27.8257 19.1407C27.5964 19.3439 27.5872 19.6986 27.8002 19.9187C28.679 20.8269 31.0825 23.1529 32.5228 25.4459C34.3124 28.3806 35.3966 30.7174 34.7455 33.9239C36.752 31.6957 38 28.7609 38 25.5C37.9457 22.2391 36.6981 19.2502 34.6372 17.022C34.5829 16.9676 34.5286 16.9128 34.4748 16.8585C34.0411 16.3694 33.4004 16.2609 32.9123 16.2609Z" fill="white"/>
</svg>
