<svg width="50" height="50" viewBox="0 0 50 50" fill="none" xmlns="http://www.w3.org/2000/svg">
<rect width="50" height="50" rx="25" fill="white" fill-opacity="0.15"/>
<path d="M22.0219 30.0005L22.01 29.9647L21.9862 29.9289L21.9742 29.8932L21.9623 29.8693L21.9504 29.8336L21.9385 29.7859L21.9266 29.762L21.9027 29.7263L21.8908 29.6905L21.8789 29.6547L21.867 29.619L21.855 29.5832L21.8431 29.5474L21.8193 29.5117L21.8073 29.4759L21.7954 29.4402L21.7835 29.4044L21.7716 29.3686L21.7597 29.3329L21.7358 29.2971L21.7239 29.2613L21.712 29.2256L21.7 29.2613L21.6881 29.2971L21.6762 29.3329L21.6524 29.3686L21.6404 29.4044L21.6285 29.4402L21.6166 29.4759L21.5928 29.5117V29.5474L21.5689 29.5832L21.557 29.619L21.5451 29.6547L21.5331 29.6905L21.5212 29.7263L21.5093 29.762L21.4855 29.7859L21.4735 29.8336L21.4616 29.8693L21.4497 29.8932L21.4378 29.9289L21.4139 29.9766L21.402 30.0005L21.3901 30.0362H22.0339L22.0219 30.0005ZM22.0219 30.0005L22.01 29.9647L21.9862 29.9289L21.9742 29.8932L21.9623 29.8693L21.9504 29.8336L21.9385 29.7859L21.9266 29.762L21.9027 29.7263L21.8908 29.6905L21.8789 29.6547L21.867 29.619L21.855 29.5832L21.8431 29.5474L21.8193 29.5117L21.8073 29.4759L21.7954 29.4402L21.7835 29.4044L21.7716 29.3686L21.7597 29.3329L21.7358 29.2971L21.7239 29.2613L21.712 29.2256L21.7 29.2613L21.6881 29.2971L21.6762 29.3329L21.6524 29.3686L21.6404 29.4044L21.6285 29.4402L21.6166 29.4759L21.5928 29.5117V29.5474L21.5689 29.5832L21.557 29.619L21.5451 29.6547L21.5331 29.6905L21.5212 29.7263L21.5093 29.762L21.4855 29.7859L21.4735 29.8336L21.4616 29.8693L21.4497 29.8932L21.4378 29.9289L21.4139 29.9766L21.402 30.0005L21.3901 30.0362H22.0339L22.0219 30.0005ZM22.7015 17.5541H22.2365V20.773H22.7015C22.9518 20.773 23.1545 20.5703 23.1545 20.3081V18.0191C23.1545 17.7568 22.9518 17.5541 22.7015 17.5541ZM22.7015 17.5541H22.2365V20.773H22.7015C22.9518 20.773 23.1545 20.5703 23.1545 20.3081V18.0191C23.1545 17.7568 22.9518 17.5541 22.7015 17.5541ZM15 13V33.5412L24.5374 38L34.0749 33.5412V13H15ZM25.4554 16.1831H26.8383V24.8979H25.4554V16.1831ZM24.5613 28.7606L24.5851 28.7964L24.609 28.8202L24.6209 28.856L24.6447 28.8918L24.6686 28.9156L24.6805 28.9514L24.7043 28.9871L24.7282 29.0229L24.7401 29.0467L24.7639 29.0825L24.7878 29.1183L24.7997 29.1421L24.8236 29.1779L24.8355 29.2136L24.8593 29.2375L24.8832 29.2732L24.907 29.309L24.9189 29.3329L24.9428 29.3686L24.9666 29.4044L24.9785 29.4402L25.0024 29.464L25.0143 29.4402L25.0381 29.4044L25.062 29.3686L25.0858 29.3329L25.0978 29.309L25.1216 29.2732L25.1454 29.2375L25.1574 29.2136L25.1812 29.1779L25.1931 29.1421L25.217 29.1183L25.2408 29.0825L25.2527 29.0467L25.2766 29.0229L25.3004 28.9871L25.3243 28.9514L25.3362 28.9156L25.36 28.8918L25.372 28.856L25.3958 28.8202L25.4196 28.7964L25.4316 28.7606L25.4554 28.7248L25.4793 28.6891L25.5031 28.6652L25.515 28.6295L25.5389 28.5937L25.5627 28.5699L25.5746 28.5341L25.5985 28.5103L25.6104 28.4745L25.6342 28.4387L25.6581 28.403L25.6819 28.3791H26.4568V31.145H25.7177V29.5117L25.7058 29.5355L25.6819 29.5713L25.6581 29.6071L25.6342 29.6309L25.6223 29.6667L25.5985 29.7024L25.5746 29.7263L25.5627 29.762L25.5389 29.7978L25.515 29.8217L25.4912 29.8574L25.4793 29.8932L25.4554 29.917L25.4316 29.9528L25.4196 29.9886L25.3958 30.0124L25.372 30.0482L25.3481 30.0839L25.3362 30.1078L25.3124 30.1435L25.2885 30.1793L25.2647 30.2031L25.2527 30.2389L25.2289 30.2747L25.2051 30.2985L25.1812 30.3343L25.1693 30.3581L25.1454 30.3939L25.1216 30.4297L25.0978 30.4535L25.0858 30.4893L25.062 30.525L25.0381 30.5489L25.0143 30.5846L25.0024 30.6204H24.9905L24.9666 30.5846L24.9428 30.5489L24.9189 30.525L24.907 30.4893L24.8832 30.4535L24.8593 30.4297L24.8355 30.3939L24.8236 30.3581L24.7997 30.3224L24.7759 30.2985L24.752 30.2628L24.7401 30.227L24.7163 30.1912L24.6924 30.1674L24.6686 30.1316L24.6567 30.0959L24.6328 30.0601L24.609 30.0362L24.5851 30.0005L24.5613 29.9647L24.5494 29.9409L24.5255 29.9051L24.5017 29.8693L24.4778 29.8455L24.4659 29.8097L24.4421 29.774L24.4182 29.7382L24.3944 29.7144L24.3825 29.6786L24.3586 29.6428L24.3348 29.6071L24.3109 29.5832L24.299 29.5474L24.2752 29.5117V31.145H23.5479V28.3791H24.3348L24.3467 28.403L24.3705 28.4387L24.3944 28.4745L24.4063 28.5103L24.4301 28.5341L24.4421 28.5699L24.4659 28.5937L24.4897 28.6295L24.5017 28.6652L24.5255 28.6891L24.5494 28.7248L24.5613 28.7606ZM20.8655 16.1831H22.8684C23.989 16.1831 24.5374 16.7315 24.5374 17.8522V20.5703C24.5374 21.6195 24.0248 22.144 22.9757 22.144H22.2485V24.8979H20.8655V16.1831ZM19.9118 30.7754L19.8879 30.7992L19.8522 30.8112L19.8283 30.835L19.7926 30.8588L19.7687 30.8827L19.733 30.8946L19.7091 30.9185L19.6733 30.9423L19.6376 30.9542L19.6018 30.9781L19.578 30.99L19.5422 31.0138L19.5064 31.0258L19.4707 31.0496L19.4349 31.0615L19.3991 31.0734L19.3634 31.0854L19.3276 31.0973L19.2918 31.1092L19.2561 31.1211L19.2203 31.133L19.1845 31.145L19.1488 31.1569L19.113 31.1688H19.0773L19.0415 31.1807H18.958L18.9223 31.1927H18.8388L18.8031 31.2046H18.6361L18.6004 31.1927H18.5169L18.4812 31.1807H18.4454L18.4096 31.1688H18.3619L18.3381 31.1569H18.2904L18.2546 31.145L18.2189 31.133L18.1831 31.1211L18.1593 31.1092L18.1235 31.0973L18.0877 31.0854L18.052 31.0615L18.0162 31.0496L17.9804 31.0377L17.9447 31.0138L17.9208 30.99L17.8851 30.9781L17.8493 30.9542L17.8255 30.9423L17.7897 30.9185L17.7659 30.8946L17.7301 30.8708L17.7062 30.8469L17.6824 30.8231L17.6466 30.7992L17.6228 30.7754L17.599 30.7515L17.5751 30.7158L17.5513 30.6919L17.5274 30.6681L17.5036 30.6323L17.4797 30.6085L17.4559 30.5727L17.444 30.5489L17.4201 30.5131L17.4082 30.4773L17.3844 30.4535L17.3724 30.4177L17.3486 30.382L17.3367 30.3462L17.3247 30.3104L17.3128 30.2866L17.3009 30.2508L17.289 30.2151L17.2771 30.1793V30.1435L17.2651 30.1078L17.2532 30.072V30.0362L17.2413 30.0005V29.9647L17.2294 29.9289V29.6071L17.2413 29.5594V29.5236L17.2532 29.4878V29.4521L17.2651 29.4163L17.2771 29.3805L17.289 29.3448L17.3009 29.309L17.3128 29.2732L17.3247 29.2375L17.3367 29.2017L17.3486 29.166L17.3724 29.1302L17.3844 29.0944L17.4082 29.0587L17.4201 29.0348L17.444 28.999L17.4559 28.9752L17.4797 28.9394L17.5036 28.9037L17.5274 28.8798L17.5513 28.8441L17.5751 28.8202L17.599 28.7964L17.6228 28.7725L17.6466 28.7368L17.6943 28.6891L17.7301 28.6652L17.7539 28.6414L17.7897 28.6175L17.8135 28.6056L17.8493 28.5818L17.8732 28.5579L17.9089 28.5341L17.9447 28.5222L17.9804 28.4983L18.0043 28.4864L18.0401 28.4626L18.0758 28.4506L18.1116 28.4387L18.1474 28.4149H18.1831L18.2189 28.391H18.2546L18.2904 28.3791L18.3262 28.3672L18.3619 28.3553L18.3977 28.3433H18.4692L18.5169 28.3314H18.5885L18.6242 28.3195H18.7911L18.8269 28.3314H18.9461L18.9938 28.3433H19.0176L19.0653 28.3553H19.1011L19.1369 28.3672L19.1607 28.3791H19.1965L19.2322 28.391L19.268 28.403L19.3038 28.4149L19.3395 28.4268L19.3634 28.4387L19.3991 28.4506L19.4349 28.4745L19.4707 28.4864L19.5064 28.5103L19.5303 28.5222L19.566 28.546L19.6018 28.5579L19.6376 28.5818L19.6614 28.6056L19.6972 28.6175L19.721 28.6414L19.7568 28.6652L19.7806 28.701L19.8164 28.7129L19.7926 28.7487L19.7687 28.7725L19.7449 28.8083L19.721 28.8321L19.6972 28.8679L19.6733 28.8918L19.6495 28.9275L19.6257 28.9514L19.6018 28.9752L19.578 29.011L19.5541 29.0467L19.5184 29.0706L19.4945 29.0944L19.4826 29.1302L19.3991 29.2136L19.3753 29.2494L19.3515 29.2256L19.3157 29.2017L19.2918 29.1779L19.2561 29.154L19.2322 29.1421L19.1965 29.1183L19.1607 29.0944L19.1369 29.0825L19.1011 29.0706L19.0773 29.0467L19.0415 29.0348L19.0057 29.0229L18.97 29.011H18.9342L18.8984 28.999L18.8627 28.9871H18.7792L18.7434 28.9752H18.66L18.6242 28.9871H18.5885L18.5527 28.999H18.5169L18.4812 29.011L18.4454 29.0229L18.4216 29.0467L18.3858 29.0587L18.35 29.0706L18.3262 29.0944L18.2904 29.1183L18.2427 29.166L18.207 29.1779L18.1831 29.2136L18.1593 29.2375L18.1354 29.2613L18.1235 29.2971L18.0997 29.3209L18.0877 29.3567L18.0639 29.3925L18.052 29.4282L18.0401 29.4521L18.0162 29.4878L18.0043 29.5355V29.5713L17.9924 29.6071V29.6428L17.9804 29.6786V29.8455L17.9924 29.8813V29.917L18.0043 29.9528V29.9886L18.0162 30.0243L18.0281 30.0601L18.0401 30.0839L18.0639 30.1555L18.0877 30.1912L18.0997 30.227L18.1235 30.2508L18.1474 30.2866L18.2427 30.382L18.2785 30.4058L18.3023 30.4297L18.3381 30.4535L18.3619 30.4654L18.3977 30.4893L18.4335 30.5012L18.4692 30.5131L18.505 30.525L18.5408 30.537L18.5885 30.5489H18.6242L18.66 30.5608H18.8269L18.8746 30.5489H18.9103L18.9461 30.537H18.9819L19.0176 30.525L19.0534 30.5131L19.0892 30.5012L19.1249 30.4893L19.1607 30.4654L19.1845 30.4535L19.2084 30.4416V30.0839H18.66V29.5355H19.9118V30.7754V30.7754ZM19.9475 17.5541H18.5646V19.855H19.9475V21.226H18.5646V23.5269H19.9475V24.8979H17.1936V16.1831H19.9475V17.5541ZM20.9967 31.0496L20.9847 31.0854L20.9728 31.1092L20.949 31.145H20.186L20.2098 31.1092L20.2217 31.0854L20.2337 31.0496L20.2456 31.0019L20.2575 30.9781L20.2814 30.9423L20.2933 30.9065L20.3052 30.8708L20.329 30.835L20.341 30.7992L20.3529 30.7635L20.3648 30.7277L20.3767 30.6919L20.4006 30.6562V30.6323L20.4125 30.5966L20.4363 30.5608L20.4483 30.525L20.4602 30.4893L20.484 30.4654L20.4959 30.4297L20.5079 30.3939L20.5198 30.3581L20.5436 30.3224L20.5556 30.2866L20.5675 30.2508L20.5913 30.2151L20.6032 30.1793L20.6152 30.1435L20.6271 30.1078L20.639 30.072L20.6629 30.0362L20.6748 30.0124L20.6867 29.9647L20.6986 29.9289L20.7225 29.9051L20.7344 29.8693L20.7463 29.8336L20.7582 29.7978L20.7821 29.762L20.794 29.7263L20.8059 29.6905L20.8178 29.6547L20.8417 29.619L20.8536 29.5832L20.8655 29.5474L20.8774 29.5117L20.8894 29.4759L20.9132 29.4521L20.9251 29.4163L20.9371 29.3805L20.9609 29.3448L20.9728 29.309L20.9847 29.2732L20.9967 29.2375L21.0086 29.2017L21.0324 29.166L21.0443 29.1302L21.0563 29.0944L21.0682 29.0587L21.0801 29.0229L21.104 28.9871L21.1159 28.9633L21.1278 28.9275L21.1516 28.8798L21.1636 28.856L21.1755 28.8202L21.1874 28.7845L21.1993 28.7487L21.2232 28.7129L21.2351 28.6772L21.247 28.6414L21.2589 28.6056L21.2828 28.5699L21.2947 28.5341L21.3066 28.5103L21.3186 28.4626L21.3424 28.4268L21.3543 28.403L21.3662 28.3672H22.0696L22.0935 28.403L22.1054 28.4268L22.1173 28.4626L22.1292 28.5103L22.1412 28.5341L22.1531 28.5699L22.165 28.6056L22.1888 28.6414L22.2008 28.6652L22.2127 28.7129L22.2365 28.7368L22.2485 28.7725L22.2604 28.8083L22.2723 28.8441L22.2842 28.8798L22.3081 28.9156L22.32 28.9514L22.3319 28.9871L22.3438 29.0229L22.3677 29.0587L22.3796 29.0944L22.3915 29.1302L22.4034 29.166L22.4273 29.2017L22.4392 29.2256L22.4511 29.2613L22.463 29.2971L22.4869 29.3329L22.4988 29.3686L22.5107 29.4044L22.5227 29.4402L22.5346 29.4759L22.5584 29.5117L22.5703 29.5474L22.5823 29.5832L22.6061 29.619L22.618 29.6547L22.6299 29.6905L22.6419 29.7144L22.6538 29.7501L22.6657 29.7859L22.6776 29.8217L22.7015 29.8574L22.7134 29.8932L22.7253 29.917L22.7372 29.9528L22.7611 30.0005L22.773 30.0243L22.7849 30.0601L22.7969 30.0959L22.8207 30.1316L22.8326 30.1674L22.8445 30.2031L22.8565 30.2389L22.8684 30.2747L22.8922 30.3104L22.9041 30.3462L22.9161 30.382L22.9399 30.4177L22.9518 30.4535L22.9638 30.4893L22.9757 30.5131L22.9876 30.5489L23.0114 30.5846L23.0234 30.6204L23.0353 30.6562L23.0472 30.6919L23.0711 30.7277L23.083 30.7635L23.0949 30.7992L23.1068 30.835L23.1307 30.8708L23.1426 30.9065L23.1545 30.9423L23.1664 30.9781L23.1903 31.0019L23.2022 31.0496L23.2141 31.0854L23.226 31.1092L23.238 31.145H22.463L22.4392 31.1092L22.4273 31.0854L22.4154 31.0496L22.4034 31.0019L22.3915 30.9781L22.3796 30.9423L22.3557 30.9065L22.3438 30.8708L22.3319 30.835L22.32 30.7992L22.3081 30.7635L22.2961 30.7277L22.2723 30.6919L22.2604 30.6562L22.2485 30.6204H21.1636L21.1516 30.6562L21.1397 30.6919L21.1159 30.7277L21.104 30.7635L21.092 30.7992L21.0801 30.835L21.0682 30.8708L21.0563 30.9065L21.0324 30.9423L21.0205 30.9781L21.0086 31.0019L20.9967 31.0496ZM27.9948 34.0539L24.4897 35.5918H24.4301L21.0682 34.0539C20.9847 34.0181 21.0086 33.8989 21.092 33.8989H27.959C28.0544 33.8989 28.0782 34.0181 27.9948 34.0539ZM29.2227 31.145H27.0172V28.3791H29.2108V28.999H27.7325V29.4521H29.0558V30.0482H27.7325V30.525H29.2227V31.145ZM31.8455 30.4297L31.8336 30.4654V30.5012L31.8217 30.537L31.8097 30.5727L31.7978 30.6204L31.7859 30.6443L31.774 30.68L31.7501 30.7158L31.7382 30.7396L31.7144 30.7754L31.6905 30.8112L31.6786 30.835L31.6547 30.8588L31.6309 30.8946L31.6071 30.9065L31.5713 30.9423L31.5474 30.9661L31.5117 30.99L31.4878 31.0019L31.4521 31.0258L31.4163 31.0496L31.3925 31.0615L31.3567 31.0854L31.309 31.0973L31.2732 31.1092L31.2375 31.1211L31.2017 31.133L31.166 31.145L31.1302 31.1569H31.0944L31.0587 31.1688H31.0229L30.9871 31.1807H30.9156L30.8679 31.1927H30.5937L30.5579 31.1807H30.4745L30.4387 31.1688H30.403L30.3672 31.1569H30.3195L30.2837 31.145L30.248 31.133L30.2122 31.1211H30.1764L30.1407 31.1092L30.1049 31.0973L30.0691 31.0854L30.0334 31.0734L29.9976 31.0615L29.9618 31.0377L29.9261 31.0258L29.8903 31.0138L29.8546 30.99L29.8188 30.9781L29.783 30.9542L29.7592 30.9423L29.7234 30.9185L29.6876 30.8946L29.6638 30.8827L29.628 30.8588L29.6042 30.835L29.5684 30.8112L29.5446 30.7873L29.5088 30.7635L29.485 30.7396L29.5088 30.7158L29.5327 30.68L29.5565 30.6562L29.5804 30.6204L29.6042 30.5966L29.628 30.5608L29.6519 30.537L29.6757 30.5131L29.6996 30.4773L29.7234 30.4535L29.7473 30.4177L29.7711 30.3939L29.7949 30.3581L29.8188 30.3343L29.8426 30.2985L29.8784 30.2747L29.8903 30.2508L29.9261 30.2628L29.9618 30.2866L29.9857 30.3104L30.0215 30.3343L30.0572 30.3581L30.093 30.382L30.1168 30.3939L30.1526 30.4177L30.1884 30.4297L30.2241 30.4535L30.248 30.4654L30.2837 30.4773L30.3195 30.4893L30.3553 30.5012L30.391 30.5131L30.4268 30.525L30.4626 30.537L30.4983 30.5489H30.546L30.5818 30.5608H30.6175L30.6533 30.5727H30.8679L30.9037 30.5608H30.9394L30.9752 30.5489L30.999 30.537L31.0229 30.525L31.0587 30.5012L31.0825 30.4773L31.0944 30.4416L31.1063 30.4058V30.3224L31.0944 30.2747L31.0467 30.227L31.011 30.2031L30.9871 30.1912L30.9514 30.1793L30.9156 30.1674L30.8679 30.1435L30.8441 30.1316H30.8083L30.7725 30.1197L30.7368 30.1078L30.701 30.0959L30.6652 30.0839L30.6295 30.072H30.5818L30.546 30.0601L30.5103 30.0482L30.4745 30.0362H30.4268L30.391 30.0243L30.3553 30.0124L30.3195 30.0005L30.2837 29.9886L30.248 29.9766L30.2241 29.9647L30.1764 29.9528L30.1407 29.9409L30.1049 29.917L30.0691 29.9051L30.0334 29.8932L29.9857 29.8693L29.9618 29.8455L29.9261 29.8336L29.8903 29.8097L29.8188 29.7382L29.783 29.7144L29.7592 29.6905L29.7353 29.6547L29.7234 29.6309L29.6996 29.6071L29.6876 29.5713L29.6638 29.5355L29.6519 29.5117V29.4759L29.64 29.4402L29.628 29.4044L29.6161 29.3686V29.2971L29.6042 29.2613V29.166L29.6161 29.1302V29.0587L29.628 29.0229L29.64 28.9871L29.6519 28.9514V28.9156L29.6638 28.8918L29.6876 28.856L29.6996 28.8202L29.7234 28.7845L29.7353 28.7487L29.7592 28.7129L29.783 28.6891L29.8069 28.6533L29.8307 28.6295L29.8665 28.6056L29.8903 28.5699L29.9142 28.5579L29.9499 28.5341L29.9738 28.5103L30.0095 28.4864L30.0453 28.4745L30.0811 28.4506L30.1168 28.4387L30.1526 28.4149H30.1884L30.2241 28.391L30.2599 28.3791H30.2837L30.3195 28.3672L30.3553 28.3553H30.391L30.4268 28.3433H30.4983L30.546 28.3314H30.7845L30.8202 28.3433H30.9394L30.9871 28.3553H31.0229L31.0587 28.3672L31.0944 28.3791H31.1302L31.166 28.391L31.2017 28.403L31.2375 28.4149H31.2732L31.309 28.4387L31.3448 28.4506L31.3805 28.4626L31.4163 28.4745L31.4521 28.4983L31.4878 28.5103L31.5117 28.5222L31.5474 28.546L31.5832 28.5699L31.619 28.5818L31.6428 28.6056L31.6786 28.6295L31.7144 28.6533L31.7382 28.6772L31.774 28.701L31.7501 28.7248L31.7263 28.7606L31.7024 28.7845L31.6786 28.8202L31.6547 28.856L31.6428 28.8798L31.619 28.9156L31.5951 28.9394L31.5713 28.9752L31.5594 28.999L31.5355 29.0348L31.5117 29.0706L31.4878 29.0944L31.464 29.1302L31.4402 29.166L31.4282 29.1898L31.4044 29.2256L31.3686 29.2017L31.3329 29.1779L31.309 29.166L31.2732 29.1421L31.2375 29.1183L31.2136 29.1063L31.1779 29.0825L31.154 29.0706L31.1183 29.0587L31.0825 29.0467L31.0467 29.0348L31.0229 29.011L30.9752 28.999L30.9394 28.9871L30.9037 28.9752H30.8679L30.8202 28.9633H30.7845L30.7487 28.9514H30.5579L30.5103 28.9633L30.4864 28.9752L30.4506 28.9871L30.4268 28.999L30.391 29.0348L30.3672 29.0706L30.3553 29.0944L30.3433 29.1421L30.3553 29.1898L30.3672 29.2375L30.391 29.2613L30.4149 29.2852L30.4506 29.309L30.4745 29.3209L30.5103 29.3448L30.5579 29.3567L30.6056 29.3686L30.6295 29.3805L30.6652 29.3925H30.701L30.7248 29.4044L30.7725 29.4163L30.8083 29.4282L30.856 29.4402L30.8918 29.4521H30.9394L30.9752 29.464L31.011 29.4759L31.0587 29.4878L31.1302 29.5117L31.166 29.5236L31.2017 29.5355L31.2375 29.5474L31.2732 29.5594L31.309 29.5713L31.3448 29.5951L31.3925 29.6071L31.4282 29.619L31.464 29.6428L31.4878 29.6667L31.5236 29.6786L31.5594 29.7024L31.5832 29.7263L31.619 29.7501L31.6428 29.774L31.6667 29.8097L31.7024 29.8336L31.7263 29.8693L31.7382 29.8932L31.762 29.9289L31.7859 29.9647L31.7978 29.9886L31.8097 30.0243L31.8217 30.0601V30.0959L31.8336 30.1316L31.8455 30.1674V30.4297V30.4297ZM31.8813 19.3901H30.5103V18.0191C30.5103 17.7568 30.2957 17.5541 30.0453 17.5541H29.5923C29.33 17.5541 29.1273 17.7568 29.1273 18.0191V22.9785C29.1273 23.3481 29.3062 23.5269 29.6876 23.5269H29.9618C30.3314 23.5269 30.5103 23.3481 30.5103 22.9785V21.691H31.8813V23.2766C31.8813 24.3615 31.3209 24.8979 30.1764 24.8979H29.4731C28.3166 24.8979 27.7563 24.3495 27.7563 23.2289V17.8522C27.7563 16.7315 28.3166 16.1831 29.4731 16.1831H30.1645C31.3209 16.1831 31.8813 16.7196 31.8813 17.8402V19.3901ZM23.1545 20.3081V18.0191C23.1545 17.7568 22.9518 17.5541 22.7015 17.5541H22.2365V20.773H22.7015C22.9518 20.773 23.1545 20.5703 23.1545 20.3081ZM22.0339 30.0362L22.0219 30.0005L22.01 29.9647L21.9862 29.9289L21.9742 29.8932L21.9623 29.8693L21.9504 29.8336L21.9385 29.7859L21.9266 29.762L21.9027 29.7263L21.8908 29.6905L21.8789 29.6547L21.867 29.619L21.855 29.5832L21.8431 29.5474L21.8193 29.5117L21.8073 29.4759L21.7954 29.4402L21.7835 29.4044L21.7716 29.3686L21.7597 29.3329L21.7358 29.2971L21.7239 29.2613L21.712 29.2256L21.7 29.2613L21.6881 29.2971L21.6762 29.3329L21.6524 29.3686L21.6404 29.4044L21.6285 29.4402L21.6166 29.4759L21.5928 29.5117V29.5474L21.5689 29.5832L21.557 29.619L21.5451 29.6547L21.5331 29.6905L21.5212 29.7263L21.5093 29.762L21.4855 29.7859L21.4735 29.8336L21.4616 29.8693L21.4497 29.8932L21.4378 29.9289L21.4139 29.9766L21.402 30.0005L21.3901 30.0362H22.0339Z" fill="white"/>
</svg>
